inDegrees=no
num_controls=7
num_derivatives=13
num_iterations=85
num_multipliers=7
num_parameters=0
num_slacks=7
num_states=26
objective=0.412610
objective_accelerations=0.065166
objective_balance=0.001727
objective_effort=0.053716
objective_height=0.286138
objective_ligament=0.005863
solver_duration=990.128839
status=Solve_Succeeded
success=true
DataType=double
version=3
OpenSimVersion=4.5
endheader
time	/jointset/ground_pelvis/pelvis_tilt/value	/jointset/ground_pelvis/pelvis_tx/value	/jointset/ground_pelvis/pelvis_ty/value	/jointset/hip_r/hip_flexion_r/value	/jointset/hip_r/hip_adduction_r/value	/jointset/hip_r/hip_rotation_r/value	/jointset/back/lumbar_extension/value	/jointset/patellofemoral_r/patellar_flexion_r/value	/jointset/knee_r/knee_flexion_r/value	/jointset/knee_r/knee_adduction_r/value	/jointset/knee_r/knee_rotation_r/value	/jointset/ankle_r/ankle_angle_r/value	/jointset/subtalar_r/subtalar_angle_r/value	/jointset/ground_pelvis/pelvis_tilt/speed	/jointset/ground_pelvis/pelvis_tx/speed	/jointset/ground_pelvis/pelvis_ty/speed	/jointset/hip_r/hip_flexion_r/speed	/jointset/hip_r/hip_adduction_r/speed	/jointset/hip_r/hip_rotation_r/speed	/jointset/back/lumbar_extension/speed	/jointset/patellofemoral_r/patellar_flexion_r/speed	/jointset/knee_r/knee_flexion_r/speed	/jointset/knee_r/knee_adduction_r/speed	/jointset/knee_r/knee_rotation_r/speed	/jointset/ankle_r/ankle_angle_r/speed	/jointset/subtalar_r/subtalar_angle_r/speed	/forceset/tau_hip_flexion_r	/forceset/tau_hip_adduction_r	/forceset/tau_hip_rotation_r	/forceset/tau_knee_flexion_r	/forceset/tau_ankle_angle_r	/forceset/tau_subtalar_angle_r	/forceset/tau_lumbar_extension	lambda_cid13_p0	lambda_cid14_p0	lambda_cid14_p1	lambda_cid14_p2	lambda_cid14_p3	lambda_cid14_p4	lambda_cid14_p5	/jointset/ground_pelvis/pelvis_tilt/accel	/jointset/ground_pelvis/pelvis_tx/accel	/jointset/ground_pelvis/pelvis_ty/accel	/jointset/hip_r/hip_flexion_r/accel	/jointset/hip_r/hip_adduction_r/accel	/jointset/hip_r/hip_rotation_r/accel	/jointset/back/lumbar_extension/accel	/jointset/patellofemoral_r/patellar_flexion_r/accel	/jointset/knee_r/knee_flexion_r/accel	/jointset/knee_r/knee_adduction_r/accel	/jointset/knee_r/knee_rotation_r/accel	/jointset/ankle_r/ankle_angle_r/accel	/jointset/subtalar_r/subtalar_angle_r/accel	gamma_cid13_p0	gamma_cid14_p0	gamma_cid14_p1	gamma_cid14_p2	gamma_cid14_p3	gamma_cid14_p4	gamma_cid14_p5
0.5	-0.2132620212694931	-0.02947140640124394	0.6720249127730987	1.342888782435882	-0.2318499083760288	-0.06720863607902544	-0.7069467332716582	1.385854868942806	1.385854868942809	-0.1200116362133941	0.1738025259540094	0.3656570248969431	0.1530698205144085	-0.4500331012043235	-0.2104190677526929	-1.009520074584632	2.970310171906273	-0.08408624190854828	0.4581869504824881	-0.6374728599279228	2.917990287563556	2.91799028756353	-0.3455739016706671	-0.01227265445301974	0.49636023968147	0.06896800496482894	-0.2739595370929925	0.007278061372553878	0.01513482149277732	-0.3886172617751924	0.05520449597008226	-0.0001092602630839692	0.3044338413353009	-0.04339313100704137	-26.35196579790571	-7.300828637854774	4.600644748253758	-14.99085370671199	-660.5560485296922	62.80382923452784	1.652589677892299	1.274963984204348	-0.3859138774496014	-2.312196943122313	0.281103199509888	0.4666105804053484	2.948672959361062	-2.86594859263975	-2.865948592639749	1.237443135170874	-0.1681287786254062	-2.419198609233326	-0.5763833758176028	1.307304599214518e-07	5.754363405739737e-07	3.430939827257617e-06	2.361634284719556e-06	-7.95006226667472e-07	-3.467247950511562e-07	4.149451900490853e-06
0.51	-0.2176785225649767	-0.03151183250801149	0.661912824095771	1.372472903895155	-0.2326770544726806	-0.06260668633743957	-0.7131740420529606	1.414887670299285	1.414887670299289	-0.1234071259124047	0.173674694399159	0.3704981478608173	0.1537293149424324	-0.4331577287791368	-0.1976656080593192	-1.012649405851423	2.946164765008218	-0.08130118786794288	0.4621985780985011	-0.607987152078176	2.888212046883281	2.888212046883283	-0.3334986346552466	-0.01323104305293749	0.4717476586571251	0.06293142856447384	-0.2824942003912617	0.00750727658912725	0.01479708131894248	-0.3987906919480844	0.05611168472316211	-0.0005843000780098732	0.312564176559298	-0.04310133154838573	-26.76442185536859	-7.778717363956181	4.904549816873341	-15.03252699127825	-670.3764939896828	63.28918577238717	1.721494326584899	1.275456271687288	-0.2392727280125025	-2.518043073371274	0.2838475488769132	0.367711388240087	2.948781335662141	-3.087479878704408	-3.087479878700266	1.196648288405038	-0.04964162399977392	-2.499832473297133	-0.6163988871132422	1.424071770164069e-07	5.894627611591348e-07	3.347997538842598e-06	2.395102878255734e-06	-8.202393398960995e-07	-3.377092721433596e-07	4.231545446895178e-06
0.52	-0.2219229734758515	-0.03342474015588826	0.6517768761104312	1.401805105183407	-0.2334750218204178	-0.0579647658124865	-0.7191064414281885	1.443611945634363	1.443611945634365	-0.126681046980524	0.1735392894136423	0.3750896360895962	0.1543286227834588	-0.4156230242838497	-0.1849153759745359	-1.014291936186957	2.919926137701196	-0.078250492125694	0.4661811071561461	-0.5784909787132175	2.856285083283684	2.856285083283714	-0.3212601754927298	-0.0137873405858467	0.4464332926623	0.05693068756536718	-0.2910288636895313	0.007736491805694874	0.01445934114509371	-0.4089641221209778	0.05701887347623967	-0.001059339892945621	0.320694511783295	-0.04277249885564916	-27.18667261413301	-8.254541989505237	5.203812242456578	-15.07962472105065	-680.3515862795962	63.82841875062111	1.784456091912245	1.274318462486363	-0.08855369119804646	-2.73084102491552	0.3342315398385506	0.4607908687317271	2.950766062403307	-3.295693176504121	-3.295693176504117	1.270081564590139	-0.08771056522365521	-2.559555603329219	-0.5692162955679022	1.518602976553191e-07	5.936892473299157e-07	3.212836675348057e-06	2.385233886600235e-06	-8.356566086401707e-07	-3.307456317361092e-07	4.25260331753223e-06
0.53	-0.2259890600772771	-0.03521027012698796	0.6416318981430561	1.430864767184695	-0.2342409445510394	-0.05328248929138265	-0.7247440546866464	1.472006563256466	1.472006563256464	-0.1298316136180353	0.1733994815058371	0.3794248126404356	0.1548686137043433	-0.3975036661791525	-0.1722002831064071	-1.014456177307958	2.891666490364008	-0.07486831545887715	0.4703237148121134	-0.5490644355753223	2.822304884642042	2.822304884642047	-0.3088141478786425	-0.01418276587565385	0.4205225432197982	0.05112941060006666	-0.2989506003902055	0.007866687873776701	0.01399196909907972	-0.4188500697665011	0.0580272442933335	-0.001608998657119781	0.3282022590022917	-0.04246218448279832	-27.55060335255187	-8.760715941088312	5.517223408076904	-15.08459392917672	-689.7890294805068	64.25068303954058	1.839335153707763	1.268486219157835	0.05669725691262213	-2.9244231213091	0.3504196493034986	0.3983787171437871	2.933684049673976	-3.499248047312835	-3.499248047316663	1.23792099209839	-0.01608039598991305	-2.618784010346001	-0.5755282085963354	1.518459650818049e-07	5.895374555086238e-07	3.080485454219737e-06	2.33680670630472e-06	-8.471717699803577e-07	-3.217808238678359e-07	4.197564638910888e-06
